<?xml version="1.0" encoding="utf-8"?>
<!-- Generator: Adobe Illustrator 22.0.1, SVG Export Plug-In . SVG Version: 6.00 Build 0)  -->
<svg version="1.1" id="Layer_1" xmlns="http://www.w3.org/2000/svg" xmlns:xlink="http://www.w3.org/1999/xlink" x="0px" y="0px"
	 viewBox="0 0 1080 1080" style="enable-background:new 0 0 1080 1080;" xml:space="preserve">
<style type="text/css">
	.st0{fill:#FFFFFF;}
</style>
<g>
	<g>
		<g>
			<path class="st0" d="M44.4,597.6c96.5,73.4,214,1.4,177.2-65.1C168.3,598.9,75.8,594.6,44.4,597.6z"/>
			<path class="st0" d="M41.7,594.5c-9-78.5,137-134.3,173.4-140.7C124.7,441.1-46,481.3,41.7,594.5z"/>
			<path class="st0" d="M231,569.4c123.2-214-135.2-65.8-151.1-45.1C115.3,517,243.9,480.9,231,569.4z"/>
		</g>
		<path class="st0" d="M217,551.5"/>
	</g>
	<g>
		<path class="st0" d="M419.6,481.4c-2.9,0-5.3,1-7,3c-1.7,1.9-2.5,3.9-2.5,6.1v75.1l-76.5-81c-1.7-2.1-4.1-3.2-7.2-3.2
			c-2.9,0-5.3,1-7,3c-1.7,1.9-2.5,3.9-2.5,6.1v98.8c0,2.2,0.8,4.2,2.5,6.1c1.8,2.1,4.1,3.1,7.1,3.1c3.1,0,5.5-1.1,7.2-3.2
			c1.6-1.9,2.4-4,2.4-6.1v-75l76.5,81.1c1.8,2.1,4.2,3.2,7.2,3.2c3,0,5.5-1,7.2-3c1.6-1.9,2.4-4,2.4-6.2v-98.8
			c0-2.1-0.8-4.2-2.4-6.1C425.1,482.4,422.6,481.4,419.6,481.4z"/>
		<path class="st0" d="M519.3,518.9L519.3,518.9c-4.2-4.3-9.2-7.9-15.1-10.5c-5.9-2.6-12.4-4-19.6-4c-7.1,0-13.7,1.3-19.6,4
			c-5.8,2.6-10.9,6.2-15.1,10.5c-4.2,4.3-7.4,9.3-9.7,14.9c-2.3,5.6-3.5,11.4-3.5,17.3c0,5.9,1.2,11.7,3.5,17.3
			c2.3,5.6,5.6,10.6,9.7,14.9c4.2,4.3,9.2,7.9,15.1,10.5c5.9,2.6,12.4,4,19.6,4c7.1,0,13.7-1.3,19.6-4c5.8-2.6,10.9-6.2,15.1-10.5
			c4.2-4.3,7.4-9.4,9.7-14.9c2.3-5.6,3.5-11.4,3.5-17.3c0-5.9-1.2-11.7-3.5-17.3C526.8,528.2,523.5,523.2,519.3,518.9z M484.7,582.1
			c-4.6,0-8.9-0.9-12.7-2.6c-3.9-1.7-7.2-4-10-6.9c-2.8-2.9-5-6.2-6.5-10c-1.5-3.7-2.3-7.6-2.3-11.6c0-3.9,0.8-7.8,2.3-11.5
			c1.5-3.7,3.7-7.1,6.5-10c2.8-2.9,6.1-5.2,10-6.9c3.8-1.7,8.1-2.6,12.7-2.6c4.6,0,8.9,0.9,12.7,2.6c3.9,1.7,7.2,4,10,6.9
			c2.8,2.9,5,6.2,6.5,10c1.5,3.7,2.3,7.6,2.3,11.5c0,4-0.8,7.9-2.3,11.6c-1.5,3.7-3.7,7.1-6.5,10c-2.8,2.9-6.1,5.2-10,6.9
			C493.6,581.2,489.3,582.1,484.7,582.1z"/>
		<path class="st0" d="M617.8,515.3c0.4-1,0.6-2,0.6-3.1c0-1.8-0.7-3.6-2-5.2c-1-1.2-2.9-2.7-6.2-2.7c-1.9,0-3.5,0.5-4.8,1.5
			c-1.1,0.9-2,1.9-2.6,3.2l-28.9,62l-29.7-62.2c-0.6-1.1-1.4-2-2.5-2.9c-1.3-1.1-2.9-1.6-4.7-1.6c-3.4,0-5.3,1.6-6.3,2.9
			c-1.2,1.6-1.9,3.3-1.9,5c0,1.1,0.2,2.1,0.6,3.2l37.3,78c0.6,1.1,1.5,2.1,2.6,2.9c1.3,1,2.9,1.5,4.7,1.5c1.7,0,3.2-0.4,4.5-1.2
			c1.3-0.8,2.4-2,3-3.4l36.2-77.7L617.8,515.3z"/>
		<path class="st0" d="M650.5,508.7L650.5,508.7c-0.6-1.1-1.5-2.1-2.6-3c-1.3-1-2.9-1.5-4.7-1.5c-1.7,0-3.2,0.4-4.5,1.2
			c-1.3,0.8-2.4,2-3,3.4l-36.2,77.7l-0.1,0.2c-0.4,1-0.6,2-0.6,3.1c0,1.8,0.7,3.6,2,5.2c1,1.2,2.9,2.7,6.2,2.7
			c1.9,0,3.5-0.5,4.8-1.5c1.1-0.9,2-1.9,2.6-3.2l28.9-62l29.7,62.2c0.6,1.1,1.4,2,2.5,2.9c1.3,1.1,2.9,1.6,4.7,1.6
			c3.4,0,5.3-1.6,6.3-2.9c1.2-1.6,1.9-3.3,1.9-5c0-1.1-0.2-2.1-0.6-3.2L650.5,508.7z"/>
		<path class="st0" d="M767.6,564c-1.5,0-2.9,0.3-4.1,1c-1.1,0.6-2,1.4-2.6,2.4c-0.4,0.5-0.8,0.9-1.1,1.4c-0.3,0.4-0.7,0.9-1.1,1.4
			l-0.2,0.2c-0.3,0.4-0.6,0.9-0.9,1.3c-0.2,0.2-0.4,0.5-0.7,0.8l-0.2,0.2c-2.8,3-6.2,5.3-10.1,6.9c-3.9,1.6-8.1,2.5-12.5,2.5
			c-4.6,0-8.9-0.9-12.7-2.6c-3.8-1.7-7.2-4.1-10-6.9c-2.8-2.9-5-6.2-6.5-9.9c-1.5-3.7-2.3-7.6-2.3-11.6c0-3.9,0.8-7.8,2.3-11.5
			c1.5-3.7,3.7-7.1,6.5-9.9c2.8-2.9,6.2-5.2,10-6.9c3.8-1.7,8.1-2.6,12.7-2.6c4.4,0,8.8,0.9,13,2.8c4.1,1.8,7.7,4.4,10.7,7.8
			c0.4,0.6,0.9,1.2,1.3,1.7l1.3,1.5c0.6,1,1.5,1.7,2.5,2.3c1.1,0.7,2.5,1,4.1,1c2.6,0,4.7-0.9,6.1-2.6c1.3-1.6,2-3.3,2-5.2
			c0-1.5-0.4-2.9-1.2-4.3c-2.1-3.1-4.5-5.9-7.4-8.5c-2.9-2.6-6-4.8-9.4-6.6c-3.4-1.8-7.1-3.2-10.9-4.2c-3.9-1-7.9-1.5-12-1.5
			c-7.1,0-13.7,1.3-19.6,4c-5.8,2.6-10.9,6.2-15.1,10.5c-4.2,4.3-7.4,9.3-9.7,14.9c-2.3,5.6-3.5,11.4-3.5,17.3
			c0,5.9,1.2,11.7,3.5,17.3c2.3,5.6,5.6,10.6,9.7,14.9c4.2,4.3,9.2,7.9,15.1,10.5c5.9,2.6,12.4,4,19.6,4c4.2,0,8.4-0.5,12.4-1.6
			c4-1.1,7.8-2.6,11.2-4.5c3.4-1.9,6.6-4.2,9.5-6.9c2.9-2.7,5.3-5.7,7.4-8.9c0.8-1.2,1.2-2.6,1.2-4.2c0-1.9-0.7-3.6-2.2-5.2
			C772.1,564.9,770.1,564,767.6,564z"/>
		<path class="st0" d="M863.2,520.1c3.3,0,5.1-1.5,6.2-2.7c1.3-1.6,2-3.4,2-5.2c0-1.8-0.7-3.6-2-5.2c-1.5-1.7-3.5-2.6-6.1-2.6H790
			c-2.5,0-4.5,0.9-6,2.6c-1.4,1.6-2.1,3.4-2.1,5.2v77.7c0,1.8,0.7,3.6,2.1,5.2c1.5,1.7,3.6,2.7,6.1,2.7h73.3c3.3,0,5.1-1.5,6.2-2.7
			c1.3-1.6,2-3.4,2-5.2c0-1.8-0.7-3.6-2-5.2c-1.5-1.7-3.5-2.6-6.1-2.6h-65.1v-25.7h49c2.5,0,4.6-0.9,6.1-2.7
			c1.4-1.6,2.1-3.4,2.1-5.2c0-1.9-0.7-3.6-2.1-5.2c-1.5-1.7-3.5-2.6-6-2.6h-49v-20.6H863.2z"/>
		<path class="st0" d="M959,513.4L959,513.4c-2.5-2.7-5.6-4.8-9.1-6.5c-3.6-1.7-7.7-2.5-12.1-2.5h-52.2c-2.5,0-4.5,0.9-6,2.6
			c-1.4,1.6-2.1,3.4-2.1,5.2v77.7c0,1.8,0.7,3.6,2.1,5.2c1.5,1.7,3.6,2.7,6.1,2.7c3.3,0,5.1-1.5,6.2-2.7c1.3-1.6,2-3.4,2-5.2v-28.4
			h44.1c4.3,0,8.4-0.8,12-2.4c3.6-1.6,6.7-3.8,9.2-6.4c2.5-2.7,4.5-5.7,5.9-9.1c1.4-3.4,2.1-6.9,2.1-10.5c0-3.6-0.7-7.1-2.1-10.5
			C963.6,519.1,961.6,516,959,513.4z M950.7,533c0,1.6-0.3,3.2-1,4.7v0c-0.7,1.6-1.6,3-2.7,4.1c-1.1,1.2-2.5,2.1-4.1,2.9
			c-1.5,0.7-3.3,1.1-5.1,1.1h-44.1v-25.7h44.1c1.9,0,3.6,0.4,5.1,1.1c1.6,0.7,2.9,1.7,4.1,2.9c1.2,1.2,2.1,2.6,2.7,4.2
			C950.4,529.7,950.7,531.3,950.7,533z"/>
		<path class="st0" d="M1060.6,507c-1.5-1.7-3.5-2.6-6.1-2.6h-73.3c-2.5,0-4.5,0.9-6,2.6c-1.4,1.6-2.1,3.4-2.1,5.2
			c0,1.8,0.7,3.6,2.1,5.2c1.5,1.7,3.6,2.7,6.1,2.7h28.5V590c0,1.8,0.7,3.6,2,5.2c1,1.2,2.9,2.7,6.2,2.7c2.5,0,4.6-0.9,6.1-2.7
			c1.4-1.6,2.1-3.4,2.1-5.2v-69.9h28.4c3.3,0,5.1-1.5,6.2-2.7c1.3-1.6,2-3.4,2-5.2C1062.6,510.3,1062,508.6,1060.6,507z"/>
	</g>
</g>
</svg>
